<svg xmlns="http://www.w3.org/2000/svg" width="1500" height="500" viewBox="0 0 1500 500">
  <defs>
    <linearGradient id="bg" x1="0" y1="0" x2="0.4" y2="1">
      <stop offset="0%" stop-color="#f8f9fb"/>
      <stop offset="100%" stop-color="#eceef3"/>
    </linearGradient>
  </defs>
  <rect width="1500" height="500" fill="url(#bg)"/>
  <text x="750.0" y="248" font-family="Liberation Sans, DejaVu Sans, sans-serif" font-size="138" font-weight="700" fill="#1a1d27" text-anchor="middle" letter-spacing="-2">Radoskop</text>
  <rect x="680.0" y="286" width="140" height="9" rx="4.5" fill="#4f46e5"/>
  <text x="750.0" y="358" font-family="Liberation Sans, DejaVu Sans, sans-serif" font-size="46" fill="#6b7280" text-anchor="middle">Zobacz, jak Twoje miasto podejmuje decyzje</text>
  <text x="750.0" y="416" font-family="Liberation Sans, DejaVu Sans, sans-serif" font-size="30" fill="#4f46e5" text-anchor="middle">monitoring rad miejskich  ·  open source  ·  radoskop.eu</text>
  <rect x="40" y="481" width="10" height="17" rx="3" fill="#059669" opacity="0.55"/>
<rect x="60" y="484" width="12" height="14" rx="3" fill="#0891b2" opacity="0.75"/>
<rect x="82" y="477" width="12" height="21" rx="3" fill="#4f46e5" opacity="0.55"/>
<rect x="110" y="486" width="11" height="12" rx="3" fill="#ea580c" opacity="0.55"/>
<rect x="137" y="438" width="8" height="60" rx="3" fill="#dc2626" opacity="0.7"/>
<rect x="155" y="453" width="12" height="45" rx="3" fill="#059669" opacity="0.55"/>
<rect x="179" y="455" width="8" height="43" rx="3" fill="#7c3aed" opacity="0.85"/>
<rect x="203" y="456" width="9" height="42" rx="3" fill="#dc2626" opacity="0.75"/>
<rect x="226" y="438" width="12" height="60" rx="3" fill="#7c3aed" opacity="0.55"/>
<rect x="250" y="484" width="10" height="14" rx="3" fill="#dc2626" opacity="0.75"/>
<rect x="270" y="477" width="12" height="21" rx="3" fill="#f59e0b" opacity="0.75"/>
<rect x="298" y="461" width="10" height="37" rx="3" fill="#f59e0b" opacity="0.85"/>
<rect x="322" y="440" width="9" height="58" rx="3" fill="#7c3aed" opacity="0.7"/>
<rect x="341" y="471" width="12" height="27" rx="3" fill="#f59e0b" opacity="0.85"/>
<rect x="369" y="452" width="10" height="46" rx="3" fill="#dc2626" opacity="0.55"/>
<rect x="395" y="442" width="9" height="56" rx="3" fill="#0891b2" opacity="0.7"/>
<rect x="420" y="488" width="11" height="10" rx="3" fill="#dc2626" opacity="0.75"/>
<rect x="445" y="446" width="10" height="52" rx="3" fill="#0891b2" opacity="0.75"/>
<rect x="471" y="439" width="12" height="59" rx="3" fill="#f59e0b" opacity="0.55"/>
<rect x="493" y="460" width="10" height="38" rx="3" fill="#dc2626" opacity="0.55"/>
<rect x="517" y="447" width="12" height="51" rx="3" fill="#f59e0b" opacity="0.85"/>
<rect x="545" y="489" width="10" height="9" rx="3" fill="#f59e0b" opacity="0.85"/>
<rect x="567" y="483" width="12" height="15" rx="3" fill="#f59e0b" opacity="0.55"/>
<rect x="591" y="482" width="10" height="16" rx="3" fill="#ea580c" opacity="0.6"/>
<rect x="617" y="485" width="11" height="13" rx="3" fill="#7c3aed" opacity="0.6"/>
<rect x="644" y="473" width="12" height="25" rx="3" fill="#7c3aed" opacity="0.6"/>
<rect x="670" y="468" width="11" height="30" rx="3" fill="#059669" opacity="0.7"/>
<rect x="693" y="479" width="8" height="19" rx="3" fill="#7c3aed" opacity="0.7"/>
<rect x="713" y="459" width="8" height="39" rx="3" fill="#7c3aed" opacity="0.85"/>
<rect x="735" y="481" width="8" height="17" rx="3" fill="#059669" opacity="0.75"/>
<rect x="757" y="454" width="12" height="44" rx="3" fill="#0891b2" opacity="0.7"/>
<rect x="779" y="433" width="11" height="65" rx="3" fill="#059669" opacity="0.6"/>
<rect x="806" y="484" width="11" height="14" rx="3" fill="#f59e0b" opacity="0.6"/>
<rect x="827" y="486" width="9" height="12" rx="3" fill="#ea580c" opacity="0.6"/>
<rect x="848" y="469" width="8" height="29" rx="3" fill="#4f46e5" opacity="0.55"/>
<rect x="866" y="481" width="12" height="17" rx="3" fill="#dc2626" opacity="0.85"/>
<rect x="888" y="435" width="8" height="63" rx="3" fill="#ea580c" opacity="0.75"/>
<rect x="912" y="450" width="9" height="48" rx="3" fill="#0284c7" opacity="0.85"/>
<rect x="935" y="483" width="11" height="15" rx="3" fill="#dc2626" opacity="0.6"/>
<rect x="962" y="460" width="11" height="38" rx="3" fill="#0284c7" opacity="0.55"/>
<rect x="985" y="443" width="8" height="55" rx="3" fill="#0891b2" opacity="0.85"/>
<rect x="1009" y="457" width="9" height="41" rx="3" fill="#4f46e5" opacity="0.7"/>
<rect x="1032" y="446" width="9" height="52" rx="3" fill="#4f46e5" opacity="0.75"/>
<rect x="1055" y="446" width="8" height="52" rx="3" fill="#0284c7" opacity="0.75"/>
<rect x="1077" y="468" width="9" height="30" rx="3" fill="#ea580c" opacity="0.75"/>
<rect x="1100" y="451" width="9" height="47" rx="3" fill="#ea580c" opacity="0.7"/>
<rect x="1125" y="478" width="9" height="20" rx="3" fill="#f59e0b" opacity="0.85"/>
<rect x="1144" y="440" width="8" height="58" rx="3" fill="#0284c7" opacity="0.6"/>
<rect x="1166" y="446" width="9" height="52" rx="3" fill="#0891b2" opacity="0.6"/>
<rect x="1189" y="485" width="10" height="13" rx="3" fill="#ea580c" opacity="0.55"/>
<rect x="1211" y="478" width="11" height="20" rx="3" fill="#0891b2" opacity="0.7"/>
<rect x="1238" y="433" width="12" height="65" rx="3" fill="#4f46e5" opacity="0.6"/>
<rect x="1264" y="437" width="8" height="61" rx="3" fill="#dc2626" opacity="0.6"/>
<rect x="1284" y="434" width="11" height="64" rx="3" fill="#7c3aed" opacity="0.6"/>
<rect x="1309" y="439" width="8" height="59" rx="3" fill="#059669" opacity="0.6"/>
<rect x="1333" y="444" width="8" height="54" rx="3" fill="#7c3aed" opacity="0.7"/>
<rect x="1353" y="481" width="8" height="17" rx="3" fill="#f59e0b" opacity="0.7"/>
<rect x="1377" y="481" width="10" height="17" rx="3" fill="#7c3aed" opacity="0.55"/>
<rect x="1397" y="457" width="8" height="41" rx="3" fill="#7c3aed" opacity="0.6"/>
<rect x="1417" y="489" width="9" height="9" rx="3" fill="#0284c7" opacity="0.7"/>
<rect x="1440" y="475" width="12" height="23" rx="3" fill="#0891b2" opacity="0.85"/>
</svg>