<svg xmlns="http://www.w3.org/2000/svg" width="1200" height="630" viewBox="0 0 1200 630">
  <defs>
    <linearGradient id="bg" x1="0" y1="0" x2="1" y2="1">
      <stop offset="0%" stop-color="#f8f9fa"/>
      <stop offset="100%" stop-color="#e5e7eb"/>
    </linearGradient>
  </defs>
  <rect width="1200" height="630" fill="url(#bg)"/>
  <rect x="0" y="0" width="1200" height="8" fill="#4f46e5"/>

  <rect x="60" y="80" width="72" height="72" rx="14" fill="#4f46e5"/>
  <text x="96" y="130" font-family="system-ui,sans-serif" font-size="48" font-weight="700" fill="white" text-anchor="middle">R</text>

  <text x="152" y="130" font-family="system-ui,sans-serif" font-size="42" font-weight="700" fill="#1a1d27">
    Radoskop
  </text>

  <text x="60" y="200" font-family="system-ui,sans-serif" font-size="30" fill="#6b7280">
    Jak glosuja radni? Monitoring rad miejskich w Polsce
  </text>

  <!-- City pills -->
  <rect x="60" y="260" width="160" height="50" rx="25" fill="#4f46e5" opacity="0.1"/>
  <text x="140" y="292" font-family="system-ui,sans-serif" font-size="20" font-weight="600" fill="#4f46e5" text-anchor="middle">Gdansk</text>

  <rect x="240" y="260" width="160" height="50" rx="25" fill="#dc2626" opacity="0.1"/>
  <text x="320" y="292" font-family="system-ui,sans-serif" font-size="20" font-weight="600" fill="#dc2626" text-anchor="middle">Warszawa</text>

  <rect x="420" y="260" width="160" height="50" rx="25" fill="#7c3aed" opacity="0.1"/>
  <text x="500" y="292" font-family="system-ui,sans-serif" font-size="20" font-weight="600" fill="#7c3aed" text-anchor="middle">Krakow</text>

  <rect x="600" y="260" width="160" height="50" rx="25" fill="#ea580c" opacity="0.1"/>
  <text x="680" y="292" font-family="system-ui,sans-serif" font-size="20" font-weight="600" fill="#ea580c" text-anchor="middle">Wroclaw</text>

  <rect x="780" y="260" width="160" height="50" rx="25" fill="#0284c7" opacity="0.1"/>
  <text x="860" y="292" font-family="system-ui,sans-serif" font-size="20" font-weight="600" fill="#0284c7" text-anchor="middle">Poznan</text>

  <rect x="960" y="260" width="160" height="50" rx="25" fill="#0891b2" opacity="0.1"/>
  <text x="1040" y="292" font-family="system-ui,sans-serif" font-size="20" font-weight="600" fill="#0891b2" text-anchor="middle">Gdynia</text>

  <rect x="60" y="330" width="160" height="50" rx="25" fill="#059669" opacity="0.1"/>
  <text x="140" y="362" font-family="system-ui,sans-serif" font-size="20" font-weight="600" fill="#059669" text-anchor="middle">Sopot</text>

  <!-- Features -->
  <text x="60" y="450" font-family="system-ui,sans-serif" font-size="22" fill="#1a1d27">
    Frekwencja · Glosowania · Profile radnych · Budzety · Uchwaly
  </text>

  <rect x="0" y="530" width="1200" height="100" fill="#4f46e5" opacity="0.05"/>
  <text x="60" y="580" font-family="system-ui,sans-serif" font-size="24" font-weight="600" fill="#4f46e5">radoskop.pl</text>
  <text x="1140" y="580" font-family="system-ui,sans-serif" font-size="16" fill="#6b7280" text-anchor="end">Otwarte dane · AGPL-3.0</text>
</svg>